<svg width="1900" height="700" viewBox="0 0 1900 700" fill="none" xmlns="http://www.w3.org/2000/svg">
<g clip-path="url(#clip0_2211_1402)">
<path d="M0 0H1900V402H0V0Z" fill="url(#paint0_linear_2211_1402)"/>
<path fill-rule="evenodd" clip-rule="evenodd" d="M0 699.998L106.083 669.431C210.583 638.863 422.75 577.727 633.333 577.727C843.917 577.727 1056.08 638.863 1266.67 657.203C1477.25 675.544 1689.42 651.09 1793.92 638.863L1900 626.636V369.867H1793.92C1689.42 369.867 1477.25 369.867 1266.67 369.867C1056.08 369.867 843.917 369.867 633.333 369.867C422.75 369.867 210.583 369.867 106.083 369.867H0V699.998Z" fill="url(#paint1_linear_2211_1402)"/>
</g>
<defs>
<linearGradient id="paint0_linear_2211_1402" x1="1900" y1="687.165" x2="-2.69456" y2="7.54344" gradientUnits="userSpaceOnUse">
<stop stop-color="#114E91"/>
<stop offset="1" stop-color="#30BE96"/>
</linearGradient>
<linearGradient id="paint1_linear_2211_1402" x1="1900" y1="632.24" x2="35.5501" y2="-91.5743" gradientUnits="userSpaceOnUse">
<stop stop-color="#114E91"/>
<stop offset="1" stop-color="#30BE96"/>
</linearGradient>
<clipPath id="clip0_2211_1402">
<rect width="1900" height="700" fill="white"/>
</clipPath>
</defs>
</svg>
