<svg width="50" height="50" viewBox="0 0 50 50" fill="none" xmlns="http://www.w3.org/2000/svg">
<path d="M29.9671 5.94452L29.9668 5.94439C28.4544 5.3395 26.7717 4.99911 24.9977 4.99911C21.4141 4.99911 18.2069 6.3813 16.0168 8.55264C14.1453 10.4133 13.0208 12.8471 13.0208 15.5024V19.7985C13.0208 22.2969 14.0166 24.5983 15.6935 26.4089L15.6939 26.4093C17.8821 28.7775 21.23 30.3017 24.9977 30.3017C27.8487 30.3017 30.4598 29.4281 32.5107 27.9782C31.2745 28.1486 29.9532 28.244 28.5643 28.2553C27.9324 28.8589 27.0408 29.2255 26.0663 29.2255H23.8283C21.995 29.2255 20.3947 27.8985 20.3947 26.1381C20.3947 24.3777 21.995 23.0507 23.8283 23.0507H24.0175L24.0191 23.0522H26.068C27.039 23.0522 27.9312 23.4162 28.5637 24.0199C32.3134 23.9808 35.13 23.1945 36.624 22.3418C36.8553 21.528 36.978 20.6775 36.978 19.7999V15.5039C36.978 12.8178 35.8265 10.3557 33.9147 8.48775L29.9671 5.94452ZM29.9671 5.94452C31.4821 6.54919 32.8205 7.42054 33.9146 8.48769L29.9671 5.94452ZM3.53024 49.5C2.34458 49.5 1.36344 48.9205 0.863725 48.1275C0.543711 47.6184 0.418238 47.0201 0.555441 46.404C1.63169 41.5775 4.82626 38.0985 8.40359 35.6327C11.8849 33.2331 15.6915 31.82 18.1445 31.0807C20.1368 32.1809 22.4856 32.8133 24.9994 32.8133C27.5133 32.8133 29.862 32.1795 31.8526 31.0806C34.3055 31.8192 38.1126 33.2319 41.5944 35.6316C45.1721 38.0974 48.3671 41.5767 49.4433 46.404L49.4434 46.4044C49.6154 47.1726 49.3761 47.9241 48.8496 48.5012L48.7961 48.5598C48.2504 49.1231 47.4251 49.5 46.4702 49.5H3.53024ZM10.1602 21.8814H10.0298C7.29697 21.82 5.20636 19.8582 5.20636 17.5711V16.5145C5.20636 14.5269 6.77668 12.798 8.9917 12.3297L9.31135 12.2622L9.37783 11.9423C10.7201 5.48346 17.1734 0.5 24.9994 0.5C32.8253 0.5 39.2803 5.4849 40.6226 11.9452L40.689 12.2646L41.008 12.3325C43.218 12.8034 44.784 14.5308 44.784 16.516V17.5726C44.784 19.6823 43.0089 21.5056 40.5809 21.828L40.2918 21.8664L40.1829 22.137C39.7332 23.2547 38.3952 24.3155 36.2691 25.0988C34.1683 25.8727 31.3997 26.3361 28.269 26.3361H27.78H27.4765L27.3364 26.6055C27.1328 26.9971 26.6599 27.3053 26.068 27.3053H23.83C23.0036 27.3053 22.4448 26.7281 22.4448 26.1426C22.4448 25.5571 23.0036 24.9798 23.83 24.9798H26.068C26.6577 24.9798 27.1315 25.2877 27.337 25.6807L27.4772 25.949H27.78H28.269C30.9222 25.949 33.407 25.577 35.375 24.9573C36.3589 24.6475 37.2253 24.2721 37.9224 23.8421C38.6142 23.4153 39.1715 22.9149 39.4922 22.3407L39.687 21.9917L39.3896 21.7248C39.2886 21.6342 39.2431 21.5274 39.2431 21.4256V13.81V13.7952L39.2422 13.7804C38.844 7.07197 32.6693 1.81328 24.9994 1.81328C17.3298 1.81328 10.968 7.23038 10.7458 14.0858L10.7456 14.0939V14.102V21.4241C10.7456 21.6199 10.5447 21.8814 10.1602 21.8814Z" stroke="url(#paint0_linear_627_3995)"/>
<defs>
<linearGradient id="paint0_linear_627_3995" x1="49.9987" y1="45.1601" x2="-5.32685" y2="37.2473" gradientUnits="userSpaceOnUse">
<stop stop-color="#114E91"/>
<stop offset="1" stop-color="#30BE96"/>
</linearGradient>
</defs>
</svg>
